<svg xmlns="http://www.w3.org/2000/svg" xmlns:xlink="http://www.w3.org/1999/xlink" width="1920" zoomAndPan="magnify" viewBox="0 0 1440 809.999993" height="1080" preserveAspectRatio="xMidYMid meet" version="1.0"><defs><g/></defs><rect x="-144" width="1728" fill="#ffffff" y="-80.999999" height="971.999992" fill-opacity="1"/><rect x="-144" width="1728" fill="#ffffff" y="-80.999999" height="971.999992" fill-opacity="1"/><rect x="-144" width="1728" fill="#ffffff" y="-80.999999" height="971.999992" fill-opacity="1"/><g fill="#ffffff" fill-opacity="1"><g transform="translate(15.105474, 297.7002)"><g><path d="M 55.140625 -26.484375 C 55.140625 -17.597656 52.957031 -10.84375 48.59375 -6.21875 C 44.238281 -1.59375 37.859375 0.71875 29.453125 0.71875 C 21.160156 0.71875 14.804688 -1.601562 10.390625 -6.25 C 5.972656 -10.894531 3.765625 -17.664062 3.765625 -26.5625 C 3.765625 -35.351562 5.960938 -42.066406 10.359375 -46.703125 C 14.753906 -51.335938 21.140625 -53.65625 29.515625 -53.65625 C 37.921875 -53.65625 44.289062 -51.351562 48.625 -46.75 C 52.96875 -42.15625 55.140625 -35.398438 55.140625 -26.484375 Z M 18.796875 -26.484375 C 18.796875 -16.273438 22.347656 -11.171875 29.453125 -11.171875 C 33.066406 -11.171875 35.742188 -12.410156 37.484375 -14.890625 C 39.234375 -17.367188 40.109375 -21.234375 40.109375 -26.484375 C 40.109375 -31.765625 39.222656 -35.660156 37.453125 -38.171875 C 35.679688 -40.691406 33.035156 -41.953125 29.515625 -41.953125 C 22.367188 -41.953125 18.796875 -36.796875 18.796875 -26.484375 Z M 18.796875 -26.484375 "/></g></g></g><g fill="#ffffff" fill-opacity="1"><g transform="translate(74.067995, 297.7002)"><g/></g></g><g fill="#ffffff" fill-opacity="1"><g transform="translate(93.288621, 297.7002)"><g><path d="M 56 0 L 37.296875 0 L 18 -37.21875 L 17.671875 -37.21875 C 18.128906 -31.363281 18.359375 -26.894531 18.359375 -23.8125 L 18.359375 0 L 5.703125 0 L 5.703125 -52.828125 L 24.359375 -52.828125 L 43.578125 -16.109375 L 43.796875 -16.109375 C 43.453125 -21.429688 43.28125 -25.707031 43.28125 -28.9375 L 43.28125 -52.828125 L 56 -52.828125 Z M 56 0 "/></g></g></g><g fill="#ffffff" fill-opacity="1"><g transform="translate(154.996946, 297.7002)"><g><path d="M 55.140625 -26.484375 C 55.140625 -17.597656 52.957031 -10.84375 48.59375 -6.21875 C 44.238281 -1.59375 37.859375 0.71875 29.453125 0.71875 C 21.160156 0.71875 14.804688 -1.601562 10.390625 -6.25 C 5.972656 -10.894531 3.765625 -17.664062 3.765625 -26.5625 C 3.765625 -35.351562 5.960938 -42.066406 10.359375 -46.703125 C 14.753906 -51.335938 21.140625 -53.65625 29.515625 -53.65625 C 37.921875 -53.65625 44.289062 -51.351562 48.625 -46.75 C 52.96875 -42.15625 55.140625 -35.398438 55.140625 -26.484375 Z M 18.796875 -26.484375 C 18.796875 -16.273438 22.347656 -11.171875 29.453125 -11.171875 C 33.066406 -11.171875 35.742188 -12.410156 37.484375 -14.890625 C 39.234375 -17.367188 40.109375 -21.234375 40.109375 -26.484375 C 40.109375 -31.765625 39.222656 -35.660156 37.453125 -38.171875 C 35.679688 -40.691406 33.035156 -41.953125 29.515625 -41.953125 C 22.367188 -41.953125 18.796875 -36.796875 18.796875 -26.484375 Z M 18.796875 -26.484375 "/></g></g></g><g fill="#ffffff" fill-opacity="1"><g transform="translate(213.959467, 297.7002)"><g><path d="M 35.375 -52.828125 L 51.34375 -52.828125 L 34.03125 0 L 17.234375 0 L 0 -52.828125 L 16.046875 -52.828125 L 23.234375 -26.046875 C 24.722656 -20.097656 25.539062 -15.957031 25.6875 -13.625 C 25.851562 -15.3125 26.191406 -17.414062 26.703125 -19.9375 C 27.210938 -22.46875 27.660156 -24.457031 28.046875 -25.90625 Z M 35.375 -52.828125 "/></g></g></g><g fill="#ffffff" fill-opacity="1"><g transform="translate(265.29876, 297.7002)"><g><path d="M 55.140625 -26.484375 C 55.140625 -17.597656 52.957031 -10.84375 48.59375 -6.21875 C 44.238281 -1.59375 37.859375 0.71875 29.453125 0.71875 C 21.160156 0.71875 14.804688 -1.601562 10.390625 -6.25 C 5.972656 -10.894531 3.765625 -17.664062 3.765625 -26.5625 C 3.765625 -35.351562 5.960938 -42.066406 10.359375 -46.703125 C 14.753906 -51.335938 21.140625 -53.65625 29.515625 -53.65625 C 37.921875 -53.65625 44.289062 -51.351562 48.625 -46.75 C 52.96875 -42.15625 55.140625 -35.398438 55.140625 -26.484375 Z M 18.796875 -26.484375 C 18.796875 -16.273438 22.347656 -11.171875 29.453125 -11.171875 C 33.066406 -11.171875 35.742188 -12.410156 37.484375 -14.890625 C 39.234375 -17.367188 40.109375 -21.234375 40.109375 -26.484375 C 40.109375 -31.765625 39.222656 -35.660156 37.453125 -38.171875 C 35.679688 -40.691406 33.035156 -41.953125 29.515625 -41.953125 C 22.367188 -41.953125 18.796875 -36.796875 18.796875 -26.484375 Z M 18.796875 -26.484375 "/></g></g></g><g fill="#ffffff" fill-opacity="1"><g transform="translate(324.261281, 297.7002)"><g/></g></g><g fill="#ffffff" fill-opacity="1"><g transform="translate(343.481906, 297.7002)"><g><path d="M 40.25 -16.046875 C 40.25 -12.765625 39.414062 -9.851562 37.75 -7.3125 C 36.09375 -4.769531 33.695312 -2.796875 30.5625 -1.390625 C 27.4375 0.015625 23.765625 0.71875 19.546875 0.71875 C 16.023438 0.71875 13.070312 0.472656 10.6875 -0.015625 C 8.3125 -0.515625 5.832031 -1.378906 3.25 -2.609375 L 3.25 -15.328125 C 5.96875 -13.921875 8.796875 -12.828125 11.734375 -12.046875 C 14.679688 -11.265625 17.382812 -10.875 19.84375 -10.875 C 21.957031 -10.875 23.507812 -11.238281 24.5 -11.96875 C 25.488281 -12.707031 25.984375 -13.65625 25.984375 -14.8125 C 25.984375 -15.539062 25.78125 -16.175781 25.375 -16.71875 C 24.976562 -17.257812 24.34375 -17.804688 23.46875 -18.359375 C 22.59375 -18.910156 20.25 -20.039062 16.4375 -21.75 C 13 -23.3125 10.414062 -24.828125 8.6875 -26.296875 C 6.96875 -27.773438 5.691406 -29.460938 4.859375 -31.359375 C 4.023438 -33.265625 3.609375 -35.519531 3.609375 -38.125 C 3.609375 -42.988281 5.378906 -46.78125 8.921875 -49.5 C 12.460938 -52.21875 17.328125 -53.578125 23.515625 -53.578125 C 28.984375 -53.578125 34.5625 -52.316406 40.25 -49.796875 L 35.875 -38.765625 C 30.9375 -41.035156 26.675781 -42.171875 23.09375 -42.171875 C 21.238281 -42.171875 19.890625 -41.84375 19.046875 -41.1875 C 18.203125 -40.539062 17.78125 -39.734375 17.78125 -38.765625 C 17.78125 -37.734375 18.316406 -36.804688 19.390625 -35.984375 C 20.460938 -35.171875 23.367188 -33.679688 28.109375 -31.515625 C 32.660156 -29.460938 35.820312 -27.257812 37.59375 -24.90625 C 39.363281 -22.5625 40.25 -19.609375 40.25 -16.046875 Z M 40.25 -16.046875 "/></g></g></g><g fill="#ffffff" fill-opacity="1"><g transform="translate(386.18638, 297.7002)"><g><path d="M 5.703125 0 L 5.703125 -52.828125 L 20.046875 -52.828125 L 20.046875 0 Z M 5.703125 0 "/></g></g></g><g fill="#ffffff" fill-opacity="1"><g transform="translate(411.946365, 297.7002)"><g><path d="M 40.25 -16.046875 C 40.25 -12.765625 39.414062 -9.851562 37.75 -7.3125 C 36.09375 -4.769531 33.695312 -2.796875 30.5625 -1.390625 C 27.4375 0.015625 23.765625 0.71875 19.546875 0.71875 C 16.023438 0.71875 13.070312 0.472656 10.6875 -0.015625 C 8.3125 -0.515625 5.832031 -1.378906 3.25 -2.609375 L 3.25 -15.328125 C 5.96875 -13.921875 8.796875 -12.828125 11.734375 -12.046875 C 14.679688 -11.265625 17.382812 -10.875 19.84375 -10.875 C 21.957031 -10.875 23.507812 -11.238281 24.5 -11.96875 C 25.488281 -12.707031 25.984375 -13.65625 25.984375 -14.8125 C 25.984375 -15.539062 25.78125 -16.175781 25.375 -16.71875 C 24.976562 -17.257812 24.34375 -17.804688 23.46875 -18.359375 C 22.59375 -18.910156 20.25 -20.039062 16.4375 -21.75 C 13 -23.3125 10.414062 -24.828125 8.6875 -26.296875 C 6.96875 -27.773438 5.691406 -29.460938 4.859375 -31.359375 C 4.023438 -33.265625 3.609375 -35.519531 3.609375 -38.125 C 3.609375 -42.988281 5.378906 -46.78125 8.921875 -49.5 C 12.460938 -52.21875 17.328125 -53.578125 23.515625 -53.578125 C 28.984375 -53.578125 34.5625 -52.316406 40.25 -49.796875 L 35.875 -38.765625 C 30.9375 -41.035156 26.675781 -42.171875 23.09375 -42.171875 C 21.238281 -42.171875 19.890625 -41.84375 19.046875 -41.1875 C 18.203125 -40.539062 17.78125 -39.734375 17.78125 -38.765625 C 17.78125 -37.734375 18.316406 -36.804688 19.390625 -35.984375 C 20.460938 -35.171875 23.367188 -33.679688 28.109375 -31.515625 C 32.660156 -29.460938 35.820312 -27.257812 37.59375 -24.90625 C 39.363281 -22.5625 40.25 -19.609375 40.25 -16.046875 Z M 40.25 -16.046875 "/></g></g></g><g fill="#ffffff" fill-opacity="1"><g transform="translate(454.650862, 297.7002)"><g><path d="M 29.015625 0 L 14.75 0 L 14.75 -41.15625 L 1.84375 -41.15625 L 1.84375 -52.828125 L 41.875 -52.828125 L 41.875 -41.15625 L 29.015625 -41.15625 Z M 29.015625 0 "/></g></g></g><g fill="#ffffff" fill-opacity="1"><g transform="translate(498.366924, 297.7002)"><g><path d="M 37.078125 0 L 5.703125 0 L 5.703125 -52.828125 L 37.078125 -52.828125 L 37.078125 -41.375 L 19.984375 -41.375 L 19.984375 -33.0625 L 35.8125 -33.0625 L 35.8125 -21.609375 L 19.984375 -21.609375 L 19.984375 -11.640625 L 37.078125 -11.640625 Z M 37.078125 0 "/></g></g></g><g fill="#ffffff" fill-opacity="1"><g transform="translate(538.975916, 297.7002)"><g><path d="M 28.71875 0 L 17.921875 -38.046875 L 17.59375 -38.046875 C 18.101562 -31.566406 18.359375 -26.53125 18.359375 -22.9375 L 18.359375 0 L 5.703125 0 L 5.703125 -52.828125 L 24.71875 -52.828125 L 35.734375 -15.328125 L 36.03125 -15.328125 L 46.828125 -52.828125 L 65.875 -52.828125 L 65.875 0 L 52.75 0 L 52.75 -23.15625 C 52.75 -24.363281 52.765625 -25.703125 52.796875 -27.171875 C 52.835938 -28.640625 53.003906 -32.238281 53.296875 -37.96875 L 52.96875 -37.96875 L 42.3125 0 Z M 28.71875 0 "/></g></g></g><g fill="#ffffff" fill-opacity="1"><g transform="translate(610.511328, 297.7002)"><g><path d="M 38.125 0 L 35.515625 -9.90625 L 18.359375 -9.90625 L 15.6875 0 L 0 0 L 17.234375 -53.046875 L 36.28125 -53.046875 L 53.734375 0 Z M 32.5625 -21.609375 L 30.28125 -30.28125 C 29.75 -32.207031 29.101562 -34.695312 28.34375 -37.75 C 27.582031 -40.8125 27.082031 -43.003906 26.84375 -44.328125 C 26.625 -43.109375 26.195312 -41.085938 25.5625 -38.265625 C 24.925781 -35.441406 23.507812 -29.890625 21.3125 -21.609375 Z M 32.5625 -21.609375 "/></g></g></g><g fill="#ffffff" fill-opacity="1"><g transform="translate(664.235156, 297.7002)"><g/></g></g><g fill="#ffffff" fill-opacity="1"><g transform="translate(683.455782, 297.7002)"><g><path d="M 55.140625 -26.484375 C 55.140625 -14.515625 51.332031 -6.445312 43.71875 -2.28125 L 56.625 12.578125 L 38.84375 12.578125 L 29.515625 0.828125 L 29.484375 0.796875 L 29.484375 0.765625 L 29.453125 0.71875 C 21.160156 0.71875 14.804688 -1.601562 10.390625 -6.25 C 5.972656 -10.894531 3.765625 -17.664062 3.765625 -26.5625 C 3.765625 -35.351562 5.960938 -42.066406 10.359375 -46.703125 C 14.753906 -51.335938 21.140625 -53.65625 29.515625 -53.65625 C 37.921875 -53.65625 44.289062 -51.351562 48.625 -46.75 C 52.96875 -42.15625 55.140625 -35.398438 55.140625 -26.484375 Z M 18.796875 -26.484375 C 18.796875 -16.273438 22.347656 -11.171875 29.453125 -11.171875 C 33.066406 -11.171875 35.742188 -12.410156 37.484375 -14.890625 C 39.234375 -17.367188 40.109375 -21.234375 40.109375 -26.484375 C 40.109375 -31.765625 39.222656 -35.660156 37.453125 -38.171875 C 35.679688 -40.691406 33.035156 -41.953125 29.515625 -41.953125 C 22.367188 -41.953125 18.796875 -36.796875 18.796875 -26.484375 Z M 18.796875 -26.484375 "/></g></g></g><g fill="#ffffff" fill-opacity="1"><g transform="translate(742.418303, 297.7002)"><g><path d="M 50.625 -52.828125 L 50.625 -21.03125 C 50.625 -14.113281 48.664062 -8.757812 44.75 -4.96875 C 40.832031 -1.175781 35.191406 0.71875 27.828125 0.71875 C 20.617188 0.71875 15.082031 -1.117188 11.21875 -4.796875 C 7.351562 -8.484375 5.421875 -13.785156 5.421875 -20.703125 L 5.421875 -52.828125 L 19.765625 -52.828125 L 19.765625 -21.828125 C 19.765625 -18.085938 20.460938 -15.375 21.859375 -13.6875 C 23.253906 -12.007812 25.316406 -11.171875 28.046875 -11.171875 C 30.953125 -11.171875 33.0625 -12.003906 34.375 -13.671875 C 35.6875 -15.347656 36.34375 -18.085938 36.34375 -21.890625 L 36.34375 -52.828125 Z M 50.625 -52.828125 "/></g></g></g><g fill="#ffffff" fill-opacity="1"><g transform="translate(798.41827, 297.7002)"><g><path d="M 37.078125 0 L 5.703125 0 L 5.703125 -52.828125 L 37.078125 -52.828125 L 37.078125 -41.375 L 19.984375 -41.375 L 19.984375 -33.0625 L 35.8125 -33.0625 L 35.8125 -21.609375 L 19.984375 -21.609375 L 19.984375 -11.640625 L 37.078125 -11.640625 Z M 37.078125 0 "/></g></g></g><g fill="#ffffff" fill-opacity="1"><g transform="translate(839.027307, 297.7002)"><g/></g></g><g fill="#ffffff" fill-opacity="1"><g transform="translate(858.247887, 297.7002)"><g><path d="M 35.375 -52.828125 L 51.34375 -52.828125 L 34.03125 0 L 17.234375 0 L 0 -52.828125 L 16.046875 -52.828125 L 23.234375 -26.046875 C 24.722656 -20.097656 25.539062 -15.957031 25.6875 -13.625 C 25.851562 -15.3125 26.191406 -17.414062 26.703125 -19.9375 C 27.210938 -22.46875 27.660156 -24.457031 28.046875 -25.90625 Z M 35.375 -52.828125 "/></g></g></g><g fill="#ffffff" fill-opacity="1"><g transform="translate(909.587179, 297.7002)"><g><path d="M 37.078125 0 L 5.703125 0 L 5.703125 -52.828125 L 37.078125 -52.828125 L 37.078125 -41.375 L 19.984375 -41.375 L 19.984375 -33.0625 L 35.8125 -33.0625 L 35.8125 -21.609375 L 19.984375 -21.609375 L 19.984375 -11.640625 L 37.078125 -11.640625 Z M 37.078125 0 "/></g></g></g><g fill="#ffffff" fill-opacity="1"><g transform="translate(950.196125, 297.7002)"><g><path d="M 28.71875 0 L 17.921875 -38.046875 L 17.59375 -38.046875 C 18.101562 -31.566406 18.359375 -26.53125 18.359375 -22.9375 L 18.359375 0 L 5.703125 0 L 5.703125 -52.828125 L 24.71875 -52.828125 L 35.734375 -15.328125 L 36.03125 -15.328125 L 46.828125 -52.828125 L 65.875 -52.828125 L 65.875 0 L 52.75 0 L 52.75 -23.15625 C 52.75 -24.363281 52.765625 -25.703125 52.796875 -27.171875 C 52.835938 -28.640625 53.003906 -32.238281 53.296875 -37.96875 L 52.96875 -37.96875 L 42.3125 0 Z M 28.71875 0 "/></g></g></g><g fill="#ffffff" fill-opacity="1"><g transform="translate(1021.731583, 297.7002)"><g/></g></g><g fill="#ffffff" fill-opacity="1"><g transform="translate(1040.952162, 297.7002)"><g><path d="M 44.046875 -36.03125 C 44.046875 -30.125 42.304688 -25.5625 38.828125 -22.34375 C 35.347656 -19.132812 30.40625 -17.53125 24 -17.53125 L 19.984375 -17.53125 L 19.984375 0 L 5.703125 0 L 5.703125 -52.828125 L 24 -52.828125 C 30.664062 -52.828125 35.671875 -51.367188 39.015625 -48.453125 C 42.367188 -45.535156 44.046875 -41.394531 44.046875 -36.03125 Z M 19.984375 -29.15625 L 22.578125 -29.15625 C 24.722656 -29.15625 26.425781 -29.753906 27.6875 -30.953125 C 28.957031 -32.160156 29.59375 -33.828125 29.59375 -35.953125 C 29.59375 -39.515625 27.617188 -41.296875 23.671875 -41.296875 L 19.984375 -41.296875 Z M 19.984375 -29.15625 "/></g></g></g><g fill="#ffffff" fill-opacity="1"><g transform="translate(1087.703106, 297.7002)"><g><path d="M 38.125 0 L 35.515625 -9.90625 L 18.359375 -9.90625 L 15.6875 0 L 0 0 L 17.234375 -53.046875 L 36.28125 -53.046875 L 53.734375 0 Z M 32.5625 -21.609375 L 30.28125 -30.28125 C 29.75 -32.207031 29.101562 -34.695312 28.34375 -37.75 C 27.582031 -40.8125 27.082031 -43.003906 26.84375 -44.328125 C 26.625 -43.109375 26.195312 -41.085938 25.5625 -38.265625 C 24.925781 -35.441406 23.507812 -29.890625 21.3125 -21.609375 Z M 32.5625 -21.609375 "/></g></g></g><g fill="#ffffff" fill-opacity="1"><g transform="translate(1141.426889, 297.7002)"><g><path d="M 26.921875 -30.9375 L 49.71875 -30.9375 L 49.71875 -2.453125 C 43.53125 -0.335938 36.722656 0.71875 29.296875 0.71875 C 21.160156 0.71875 14.867188 -1.640625 10.421875 -6.359375 C 5.984375 -11.078125 3.765625 -17.8125 3.765625 -26.5625 C 3.765625 -35.082031 6.195312 -41.710938 11.0625 -46.453125 C 15.925781 -51.203125 22.742188 -53.578125 31.515625 -53.578125 C 34.835938 -53.578125 37.972656 -53.265625 40.921875 -52.640625 C 43.867188 -52.015625 46.441406 -51.222656 48.640625 -50.265625 L 44.125 -39.0625 C 40.3125 -40.9375 36.128906 -41.875 31.578125 -41.875 C 27.410156 -41.875 24.1875 -40.519531 21.90625 -37.8125 C 19.632812 -35.101562 18.5 -31.234375 18.5 -26.203125 C 18.5 -21.265625 19.523438 -17.5 21.578125 -14.90625 C 23.640625 -12.3125 26.613281 -11.015625 30.5 -11.015625 C 32.613281 -11.015625 34.5625 -11.222656 36.34375 -11.640625 L 36.34375 -19.90625 L 26.921875 -19.90625 Z M 26.921875 -30.9375 "/></g></g></g><g fill="#ffffff" fill-opacity="1"><g transform="translate(1196.198493, 297.7002)"><g><path d="M 38.125 0 L 35.515625 -9.90625 L 18.359375 -9.90625 L 15.6875 0 L 0 0 L 17.234375 -53.046875 L 36.28125 -53.046875 L 53.734375 0 Z M 32.5625 -21.609375 L 30.28125 -30.28125 C 29.75 -32.207031 29.101562 -34.695312 28.34375 -37.75 C 27.582031 -40.8125 27.082031 -43.003906 26.84375 -44.328125 C 26.625 -43.109375 26.195312 -41.085938 25.5625 -38.265625 C 24.925781 -35.441406 23.507812 -29.890625 21.3125 -21.609375 Z M 32.5625 -21.609375 "/></g></g></g><g fill="#ffffff" fill-opacity="1"><g transform="translate(1249.922276, 297.7002)"><g><path d="M 56 0 L 37.296875 0 L 18 -37.21875 L 17.671875 -37.21875 C 18.128906 -31.363281 18.359375 -26.894531 18.359375 -23.8125 L 18.359375 0 L 5.703125 0 L 5.703125 -52.828125 L 24.359375 -52.828125 L 43.578125 -16.109375 L 43.796875 -16.109375 C 43.453125 -21.429688 43.28125 -25.707031 43.28125 -28.9375 L 43.28125 -52.828125 L 56 -52.828125 Z M 56 0 "/></g></g></g><g fill="#ffffff" fill-opacity="1"><g transform="translate(1311.630555, 297.7002)"><g><path d="M 50.546875 -27.53125 C 50.546875 -18.71875 48.117188 -11.925781 43.265625 -7.15625 C 38.410156 -2.382812 31.585938 0 22.796875 0 L 5.703125 0 L 5.703125 -52.828125 L 24 -52.828125 C 32.476562 -52.828125 39.019531 -50.65625 43.625 -46.3125 C 48.238281 -41.976562 50.546875 -35.71875 50.546875 -27.53125 Z M 35.734375 -27.03125 C 35.734375 -31.875 34.773438 -35.460938 32.859375 -37.796875 C 30.941406 -40.128906 28.035156 -41.296875 24.140625 -41.296875 L 19.984375 -41.296875 L 19.984375 -11.703125 L 23.15625 -11.703125 C 27.5 -11.703125 30.679688 -12.960938 32.703125 -15.484375 C 34.722656 -18.003906 35.734375 -21.851562 35.734375 -27.03125 Z M 35.734375 -27.03125 "/></g></g></g><g fill="#ffffff" fill-opacity="1"><g transform="translate(1365.932402, 297.7002)"><g><path d="M 55.140625 -26.484375 C 55.140625 -17.597656 52.957031 -10.84375 48.59375 -6.21875 C 44.238281 -1.59375 37.859375 0.71875 29.453125 0.71875 C 21.160156 0.71875 14.804688 -1.601562 10.390625 -6.25 C 5.972656 -10.894531 3.765625 -17.664062 3.765625 -26.5625 C 3.765625 -35.351562 5.960938 -42.066406 10.359375 -46.703125 C 14.753906 -51.335938 21.140625 -53.65625 29.515625 -53.65625 C 37.921875 -53.65625 44.289062 -51.351562 48.625 -46.75 C 52.96875 -42.15625 55.140625 -35.398438 55.140625 -26.484375 Z M 18.796875 -26.484375 C 18.796875 -16.273438 22.347656 -11.171875 29.453125 -11.171875 C 33.066406 -11.171875 35.742188 -12.410156 37.484375 -14.890625 C 39.234375 -17.367188 40.109375 -21.234375 40.109375 -26.484375 C 40.109375 -31.765625 39.222656 -35.660156 37.453125 -38.171875 C 35.679688 -40.691406 33.035156 -41.953125 29.515625 -41.953125 C 22.367188 -41.953125 18.796875 -36.796875 18.796875 -26.484375 Z M 18.796875 -26.484375 "/></g></g></g><g fill="#eac403" fill-opacity="1"><g transform="translate(58.898441, 378.700196)"><g><path d="M 38.125 0 L 35.515625 -9.90625 L 18.359375 -9.90625 L 15.6875 0 L 0 0 L 17.234375 -53.046875 L 36.28125 -53.046875 L 53.734375 0 Z M 32.5625 -21.609375 L 30.28125 -30.28125 C 29.75 -32.207031 29.101562 -34.695312 28.34375 -37.75 C 27.582031 -40.8125 27.082031 -43.003906 26.84375 -44.328125 C 26.625 -43.109375 26.195312 -41.085938 25.5625 -38.265625 C 24.925781 -35.441406 23.507812 -29.890625 21.3125 -21.609375 Z M 32.5625 -21.609375 "/></g></g></g><g fill="#eac403" fill-opacity="1"><g transform="translate(112.622258, 378.700196)"><g><path d="M 29.015625 0 L 14.75 0 L 14.75 -41.15625 L 1.84375 -41.15625 L 1.84375 -52.828125 L 41.875 -52.828125 L 41.875 -41.15625 L 29.015625 -41.15625 Z M 29.015625 0 "/></g></g></g><g fill="#eac403" fill-opacity="1"><g transform="translate(156.338343, 378.700196)"><g><path d="M 37.078125 0 L 5.703125 0 L 5.703125 -52.828125 L 37.078125 -52.828125 L 37.078125 -41.375 L 19.984375 -41.375 L 19.984375 -33.0625 L 35.8125 -33.0625 L 35.8125 -21.609375 L 19.984375 -21.609375 L 19.984375 -11.640625 L 37.078125 -11.640625 Z M 13.09375 -57.0625 L 13.09375 -58.109375 C 16.800781 -62.078125 19.15625 -64.640625 20.15625 -65.796875 C 21.15625 -66.953125 21.976562 -67.988281 22.625 -68.90625 L 38.09375 -68.90625 L 38.09375 -68.15625 C 36.164062 -66.613281 33.515625 -64.648438 30.140625 -62.265625 C 26.765625 -59.878906 24.210938 -58.144531 22.484375 -57.0625 Z M 13.09375 -57.0625 "/></g></g></g><g fill="#eac403" fill-opacity="1"><g transform="translate(196.947335, 378.700196)"><g/></g></g><g fill="#eac403" fill-opacity="1"><g transform="translate(216.16796, 378.700196)"><g><path d="M 40.546875 0 L 2.203125 0 L 2.203125 -9.390625 L 15.109375 -22.4375 C 18.785156 -26.289062 21.191406 -28.921875 22.328125 -30.328125 C 23.460938 -31.742188 24.25 -32.957031 24.6875 -33.96875 C 25.132812 -34.976562 25.359375 -36.035156 25.359375 -37.140625 C 25.359375 -38.515625 24.910156 -39.597656 24.015625 -40.390625 C 23.128906 -41.191406 21.878906 -41.59375 20.265625 -41.59375 C 18.609375 -41.59375 16.929688 -41.113281 15.234375 -40.15625 C 13.535156 -39.207031 11.613281 -37.804688 9.46875 -35.953125 L 1.625 -45.125 C 4.34375 -47.5625 6.628906 -49.300781 8.484375 -50.34375 C 10.347656 -51.394531 12.367188 -52.195312 14.546875 -52.75 C 16.722656 -53.300781 19.171875 -53.578125 21.890625 -53.578125 C 25.316406 -53.578125 28.367188 -52.972656 31.046875 -51.765625 C 33.734375 -50.566406 35.816406 -48.851562 37.296875 -46.625 C 38.785156 -44.394531 39.53125 -41.894531 39.53125 -39.125 C 39.53125 -37.0625 39.269531 -35.148438 38.75 -33.390625 C 38.226562 -31.628906 37.425781 -29.898438 36.34375 -28.203125 C 35.257812 -26.503906 33.820312 -24.710938 32.03125 -22.828125 C 30.238281 -20.953125 26.414062 -17.390625 20.5625 -12.140625 L 20.5625 -11.78125 L 40.546875 -11.78125 Z M 40.546875 0 "/></g></g></g><g fill="#eac403" fill-opacity="1"><g transform="translate(259.522744, 378.700196)"><g><path d="M 24 -34.609375 C 27.03125 -34.609375 29.765625 -33.90625 32.203125 -32.5 C 34.648438 -31.09375 36.554688 -29.097656 37.921875 -26.515625 C 39.285156 -23.941406 39.96875 -20.96875 39.96875 -17.59375 C 39.96875 -11.695312 38.1875 -7.171875 34.625 -4.015625 C 31.070312 -0.859375 25.695312 0.71875 18.5 0.71875 C 12.332031 0.71875 7.296875 -0.226562 3.390625 -2.125 L 3.390625 -13.84375 C 5.492188 -12.875 7.863281 -12.078125 10.5 -11.453125 C 13.132812 -10.828125 15.40625 -10.515625 17.3125 -10.515625 C 19.957031 -10.515625 21.988281 -11.070312 23.40625 -12.1875 C 24.832031 -13.3125 25.546875 -14.96875 25.546875 -17.15625 C 25.546875 -19.1875 24.820312 -20.765625 23.375 -21.890625 C 21.925781 -23.023438 19.734375 -23.59375 16.796875 -23.59375 C 14.554688 -23.59375 12.140625 -23.171875 9.546875 -22.328125 L 4.296875 -24.9375 L 6.28125 -52.828125 L 36.421875 -52.828125 L 36.421875 -40.9375 L 18.421875 -40.9375 L 17.78125 -33.96875 C 19.65625 -34.320312 20.988281 -34.515625 21.78125 -34.546875 C 22.582031 -34.585938 23.320312 -34.609375 24 -34.609375 Z M 24 -34.609375 "/></g></g></g><g fill="#eac403" fill-opacity="1"><g transform="translate(302.877538, 378.700196)"><g><path d="M 50.84375 0 L 34.71875 0 L 24.28125 -20.203125 L 20.046875 -17.671875 L 20.046875 0 L 5.703125 0 L 5.703125 -52.828125 L 20.046875 -52.828125 L 20.046875 -29.875 C 20.773438 -31.300781 22.234375 -33.554688 24.421875 -36.640625 L 35.515625 -52.828125 L 51.125 -52.828125 L 34.46875 -29.15625 Z M 50.84375 0 "/></g></g></g><g fill="#eac403" fill-opacity="1"><g transform="translate(353.711047, 378.700196)"><g/></g></g><g fill="#eac403" fill-opacity="1"><g transform="translate(372.931673, 378.700196)"><g><path d="M 44.046875 -36.03125 C 44.046875 -30.125 42.304688 -25.5625 38.828125 -22.34375 C 35.347656 -19.132812 30.40625 -17.53125 24 -17.53125 L 19.984375 -17.53125 L 19.984375 0 L 5.703125 0 L 5.703125 -52.828125 L 24 -52.828125 C 30.664062 -52.828125 35.671875 -51.367188 39.015625 -48.453125 C 42.367188 -45.535156 44.046875 -41.394531 44.046875 -36.03125 Z M 19.984375 -29.15625 L 22.578125 -29.15625 C 24.722656 -29.15625 26.425781 -29.753906 27.6875 -30.953125 C 28.957031 -32.160156 29.59375 -33.828125 29.59375 -35.953125 C 29.59375 -39.515625 27.617188 -41.296875 23.671875 -41.296875 L 19.984375 -41.296875 Z M 19.984375 -29.15625 "/></g></g></g><g fill="#eac403" fill-opacity="1"><g transform="translate(419.682593, 378.700196)"><g><path d="M 55.140625 -26.484375 C 55.140625 -17.597656 52.957031 -10.84375 48.59375 -6.21875 C 44.238281 -1.59375 37.859375 0.71875 29.453125 0.71875 C 21.160156 0.71875 14.804688 -1.601562 10.390625 -6.25 C 5.972656 -10.894531 3.765625 -17.664062 3.765625 -26.5625 C 3.765625 -35.351562 5.960938 -42.066406 10.359375 -46.703125 C 14.753906 -51.335938 21.140625 -53.65625 29.515625 -53.65625 C 37.921875 -53.65625 44.289062 -51.351562 48.625 -46.75 C 52.96875 -42.15625 55.140625 -35.398438 55.140625 -26.484375 Z M 18.796875 -26.484375 C 18.796875 -16.273438 22.347656 -11.171875 29.453125 -11.171875 C 33.066406 -11.171875 35.742188 -12.410156 37.484375 -14.890625 C 39.234375 -17.367188 40.109375 -21.234375 40.109375 -26.484375 C 40.109375 -31.765625 39.222656 -35.660156 37.453125 -38.171875 C 35.679688 -40.691406 33.035156 -41.953125 29.515625 -41.953125 C 22.367188 -41.953125 18.796875 -36.796875 18.796875 -26.484375 Z M 18.796875 -26.484375 "/></g></g></g><g fill="#eac403" fill-opacity="1"><g transform="translate(478.645092, 378.700196)"><g><path d="M 19.984375 -19.21875 L 19.984375 0 L 5.703125 0 L 5.703125 -52.828125 L 23.015625 -52.828125 C 37.367188 -52.828125 44.546875 -47.625 44.546875 -37.21875 C 44.546875 -31.101562 41.5625 -26.367188 35.59375 -23.015625 L 50.984375 0 L 34.796875 0 L 23.59375 -19.21875 Z M 19.984375 -29.953125 L 22.65625 -29.953125 C 27.644531 -29.953125 30.140625 -32.15625 30.140625 -36.5625 C 30.140625 -40.195312 27.691406 -42.015625 22.796875 -42.015625 L 19.984375 -42.015625 Z M 19.984375 -29.953125 "/></g></g></g><g fill="#eac403" fill-opacity="1"><g transform="translate(528.719857, 378.700196)"><g/></g></g><g fill="#eac403" fill-opacity="1"><g transform="translate(547.940483, 378.700196)"><g><path d="M 28.71875 0 L 17.921875 -38.046875 L 17.59375 -38.046875 C 18.101562 -31.566406 18.359375 -26.53125 18.359375 -22.9375 L 18.359375 0 L 5.703125 0 L 5.703125 -52.828125 L 24.71875 -52.828125 L 35.734375 -15.328125 L 36.03125 -15.328125 L 46.828125 -52.828125 L 65.875 -52.828125 L 65.875 0 L 52.75 0 L 52.75 -23.15625 C 52.75 -24.363281 52.765625 -25.703125 52.796875 -27.171875 C 52.835938 -28.640625 53.003906 -32.238281 53.296875 -37.96875 L 52.96875 -37.96875 L 42.3125 0 Z M 28.71875 0 "/></g></g></g><g fill="#eac403" fill-opacity="1"><g transform="translate(619.475895, 378.700196)"><g><path d="M 37.078125 0 L 5.703125 0 L 5.703125 -52.828125 L 37.078125 -52.828125 L 37.078125 -41.375 L 19.984375 -41.375 L 19.984375 -33.0625 L 35.8125 -33.0625 L 35.8125 -21.609375 L 19.984375 -21.609375 L 19.984375 -11.640625 L 37.078125 -11.640625 Z M 29.046875 -57.0625 C 27.023438 -58.21875 24.609375 -60.023438 21.796875 -62.484375 C 18.773438 -59.898438 16.4375 -58.09375 14.78125 -57.0625 L 5.453125 -57.0625 L 5.453125 -58.109375 C 7.117188 -59.671875 8.859375 -61.507812 10.671875 -63.625 C 12.492188 -65.75 13.863281 -67.507812 14.78125 -68.90625 L 28.984375 -68.90625 C 31.242188 -65.613281 34.328125 -62.015625 38.234375 -58.109375 L 38.234375 -57.0625 Z M 29.046875 -57.0625 "/></g></g></g><g fill="#eac403" fill-opacity="1"><g transform="translate(660.084887, 378.700196)"><g><path d="M 40.25 -16.046875 C 40.25 -12.765625 39.414062 -9.851562 37.75 -7.3125 C 36.09375 -4.769531 33.695312 -2.796875 30.5625 -1.390625 C 27.4375 0.015625 23.765625 0.71875 19.546875 0.71875 C 16.023438 0.71875 13.070312 0.472656 10.6875 -0.015625 C 8.3125 -0.515625 5.832031 -1.378906 3.25 -2.609375 L 3.25 -15.328125 C 5.96875 -13.921875 8.796875 -12.828125 11.734375 -12.046875 C 14.679688 -11.265625 17.382812 -10.875 19.84375 -10.875 C 21.957031 -10.875 23.507812 -11.238281 24.5 -11.96875 C 25.488281 -12.707031 25.984375 -13.65625 25.984375 -14.8125 C 25.984375 -15.539062 25.78125 -16.175781 25.375 -16.71875 C 24.976562 -17.257812 24.34375 -17.804688 23.46875 -18.359375 C 22.59375 -18.910156 20.25 -20.039062 16.4375 -21.75 C 13 -23.3125 10.414062 -24.828125 8.6875 -26.296875 C 6.96875 -27.773438 5.691406 -29.460938 4.859375 -31.359375 C 4.023438 -33.265625 3.609375 -35.519531 3.609375 -38.125 C 3.609375 -42.988281 5.378906 -46.78125 8.921875 -49.5 C 12.460938 -52.21875 17.328125 -53.578125 23.515625 -53.578125 C 28.984375 -53.578125 34.5625 -52.316406 40.25 -49.796875 L 35.875 -38.765625 C 30.9375 -41.035156 26.675781 -42.171875 23.09375 -42.171875 C 21.238281 -42.171875 19.890625 -41.84375 19.046875 -41.1875 C 18.203125 -40.539062 17.78125 -39.734375 17.78125 -38.765625 C 17.78125 -37.734375 18.316406 -36.804688 19.390625 -35.984375 C 20.460938 -35.171875 23.367188 -33.679688 28.109375 -31.515625 C 32.660156 -29.460938 35.820312 -27.257812 37.59375 -24.90625 C 39.363281 -22.5625 40.25 -19.609375 40.25 -16.046875 Z M 40.25 -16.046875 "/></g></g></g><g fill="#000000" fill-opacity="1"><g transform="translate(702.785131, 378.700196)"><g/></g></g><g fill="#ffffff" fill-opacity="1"><g transform="translate(722.00388, 378.700196)"><g><path d="M 44.046875 -36.03125 C 44.046875 -30.125 42.304688 -25.5625 38.828125 -22.34375 C 35.347656 -19.132812 30.40625 -17.53125 24 -17.53125 L 19.984375 -17.53125 L 19.984375 0 L 5.703125 0 L 5.703125 -52.828125 L 24 -52.828125 C 30.664062 -52.828125 35.671875 -51.367188 39.015625 -48.453125 C 42.367188 -45.535156 44.046875 -41.394531 44.046875 -36.03125 Z M 19.984375 -29.15625 L 22.578125 -29.15625 C 24.722656 -29.15625 26.425781 -29.753906 27.6875 -30.953125 C 28.957031 -32.160156 29.59375 -33.828125 29.59375 -35.953125 C 29.59375 -39.515625 27.617188 -41.296875 23.671875 -41.296875 L 19.984375 -41.296875 Z M 19.984375 -29.15625 "/></g></g></g><g fill="#ffffff" fill-opacity="1"><g transform="translate(768.754801, 378.700196)"><g><path d="M 38.125 0 L 35.515625 -9.90625 L 18.359375 -9.90625 L 15.6875 0 L 0 0 L 17.234375 -53.046875 L 36.28125 -53.046875 L 53.734375 0 Z M 32.5625 -21.609375 L 30.28125 -30.28125 C 29.75 -32.207031 29.101562 -34.695312 28.34375 -37.75 C 27.582031 -40.8125 27.082031 -43.003906 26.84375 -44.328125 C 26.625 -43.109375 26.195312 -41.085938 25.5625 -38.265625 C 24.925781 -35.441406 23.507812 -29.890625 21.3125 -21.609375 Z M 32.5625 -21.609375 "/></g></g></g><g fill="#ffffff" fill-opacity="1"><g transform="translate(822.478618, 378.700196)"><g><path d="M 19.984375 -19.21875 L 19.984375 0 L 5.703125 0 L 5.703125 -52.828125 L 23.015625 -52.828125 C 37.367188 -52.828125 44.546875 -47.625 44.546875 -37.21875 C 44.546875 -31.101562 41.5625 -26.367188 35.59375 -23.015625 L 50.984375 0 L 34.796875 0 L 23.59375 -19.21875 Z M 19.984375 -29.953125 L 22.65625 -29.953125 C 27.644531 -29.953125 30.140625 -32.15625 30.140625 -36.5625 C 30.140625 -40.195312 27.691406 -42.015625 22.796875 -42.015625 L 19.984375 -42.015625 Z M 19.984375 -29.953125 "/></g></g></g><g fill="#ffffff" fill-opacity="1"><g transform="translate(872.553406, 378.700196)"><g><path d="M 38.125 0 L 35.515625 -9.90625 L 18.359375 -9.90625 L 15.6875 0 L 0 0 L 17.234375 -53.046875 L 36.28125 -53.046875 L 53.734375 0 Z M 32.5625 -21.609375 L 30.28125 -30.28125 C 29.75 -32.207031 29.101562 -34.695312 28.34375 -37.75 C 27.582031 -40.8125 27.082031 -43.003906 26.84375 -44.328125 C 26.625 -43.109375 26.195312 -41.085938 25.5625 -38.265625 C 24.925781 -35.441406 23.507812 -29.890625 21.3125 -21.609375 Z M 32.5625 -21.609375 "/></g></g></g><g fill="#ffffff" fill-opacity="1"><g transform="translate(926.277224, 378.700196)"><g/></g></g><g fill="#ffffff" fill-opacity="1"><g transform="translate(945.497849, 378.700196)"><g><path d="M 35.375 -52.828125 L 51.34375 -52.828125 L 34.03125 0 L 17.234375 0 L 0 -52.828125 L 16.046875 -52.828125 L 23.234375 -26.046875 C 24.722656 -20.097656 25.539062 -15.957031 25.6875 -13.625 C 25.851562 -15.3125 26.191406 -17.414062 26.703125 -19.9375 C 27.210938 -22.46875 27.660156 -24.457031 28.046875 -25.90625 Z M 35.375 -52.828125 "/></g></g></g><g fill="#ffffff" fill-opacity="1"><g transform="translate(996.837164, 378.700196)"><g><path d="M 55.140625 -26.484375 C 55.140625 -17.597656 52.957031 -10.84375 48.59375 -6.21875 C 44.238281 -1.59375 37.859375 0.71875 29.453125 0.71875 C 21.160156 0.71875 14.804688 -1.601562 10.390625 -6.25 C 5.972656 -10.894531 3.765625 -17.664062 3.765625 -26.5625 C 3.765625 -35.351562 5.960938 -42.066406 10.359375 -46.703125 C 14.753906 -51.335938 21.140625 -53.65625 29.515625 -53.65625 C 37.921875 -53.65625 44.289062 -51.351562 48.625 -46.75 C 52.96875 -42.15625 55.140625 -35.398438 55.140625 -26.484375 Z M 18.796875 -26.484375 C 18.796875 -16.273438 22.347656 -11.171875 29.453125 -11.171875 C 33.066406 -11.171875 35.742188 -12.410156 37.484375 -14.890625 C 39.234375 -17.367188 40.109375 -21.234375 40.109375 -26.484375 C 40.109375 -31.765625 39.222656 -35.660156 37.453125 -38.171875 C 35.679688 -40.691406 33.035156 -41.953125 29.515625 -41.953125 C 22.367188 -41.953125 18.796875 -36.796875 18.796875 -26.484375 Z M 18.796875 -26.484375 "/></g></g></g><g fill="#ffffff" fill-opacity="1"><g transform="translate(1055.799685, 378.700196)"><g><path d="M 29.234375 -41.875 C 25.835938 -41.875 23.1875 -40.484375 21.28125 -37.703125 C 19.375 -34.921875 18.421875 -31.085938 18.421875 -26.203125 C 18.421875 -16.035156 22.289062 -10.953125 30.03125 -10.953125 C 32.363281 -10.953125 34.625 -11.273438 36.8125 -11.921875 C 39.007812 -12.578125 41.21875 -13.359375 43.4375 -14.265625 L 43.4375 -2.203125 C 39.019531 -0.253906 34.03125 0.71875 28.46875 0.71875 C 20.5 0.71875 14.390625 -1.59375 10.140625 -6.21875 C 5.890625 -10.84375 3.765625 -17.523438 3.765625 -26.265625 C 3.765625 -31.734375 4.789062 -36.539062 6.84375 -40.6875 C 8.90625 -44.832031 11.867188 -48.015625 15.734375 -50.234375 C 19.597656 -52.460938 24.144531 -53.578125 29.375 -53.578125 C 35.082031 -53.578125 40.539062 -52.335938 45.75 -49.859375 L 41.375 -38.625 C 39.425781 -39.539062 37.472656 -40.3125 35.515625 -40.9375 C 33.566406 -41.5625 31.472656 -41.875 29.234375 -41.875 Z M 29.234375 -41.875 "/></g></g></g><g fill="#ffffff" fill-opacity="1"><g transform="translate(1103.815109, 378.700196)"><g><path d="M 37.078125 0 L 5.703125 0 L 5.703125 -52.828125 L 37.078125 -52.828125 L 37.078125 -41.375 L 19.984375 -41.375 L 19.984375 -33.0625 L 35.8125 -33.0625 L 35.8125 -21.609375 L 19.984375 -21.609375 L 19.984375 -11.640625 L 37.078125 -11.640625 Z M 29.046875 -57.0625 C 27.023438 -58.21875 24.609375 -60.023438 21.796875 -62.484375 C 18.773438 -59.898438 16.4375 -58.09375 14.78125 -57.0625 L 5.453125 -57.0625 L 5.453125 -58.109375 C 7.117188 -59.671875 8.859375 -61.507812 10.671875 -63.625 C 12.492188 -65.75 13.863281 -67.507812 14.78125 -68.90625 L 28.984375 -68.90625 C 31.242188 -65.613281 34.328125 -62.015625 38.234375 -58.109375 L 38.234375 -57.0625 Z M 29.046875 -57.0625 "/></g></g></g><g fill="#ffffff" fill-opacity="1"><g transform="translate(1144.424101, 378.700196)"><g/></g></g><g fill="#ffffff" fill-opacity="1"><g transform="translate(1163.644727, 378.700196)"><g><path d="M 19.765625 0 L 5.703125 0 L 5.703125 -52.828125 L 36.921875 -52.828125 L 36.921875 -41.375 L 19.765625 -41.375 L 19.765625 -31.296875 L 35.59375 -31.296875 L 35.59375 -19.84375 L 19.765625 -19.84375 Z M 19.765625 0 "/></g></g></g><g fill="#ffffff" fill-opacity="1"><g transform="translate(1203.531138, 378.700196)"><g><path d="M 5.703125 0 L 5.703125 -52.828125 L 20.046875 -52.828125 L 20.046875 0 Z M 5.703125 0 "/></g></g></g><g fill="#ffffff" fill-opacity="1"><g transform="translate(1229.291101, 378.700196)"><g><path d="M 29.234375 -41.875 C 25.835938 -41.875 23.1875 -40.484375 21.28125 -37.703125 C 19.375 -34.921875 18.421875 -31.085938 18.421875 -26.203125 C 18.421875 -16.035156 22.289062 -10.953125 30.03125 -10.953125 C 32.363281 -10.953125 34.625 -11.273438 36.8125 -11.921875 C 39.007812 -12.578125 41.21875 -13.359375 43.4375 -14.265625 L 43.4375 -2.203125 C 39.019531 -0.253906 34.03125 0.71875 28.46875 0.71875 C 20.5 0.71875 14.390625 -1.59375 10.140625 -6.21875 C 5.890625 -10.84375 3.765625 -17.523438 3.765625 -26.265625 C 3.765625 -31.734375 4.789062 -36.539062 6.84375 -40.6875 C 8.90625 -44.832031 11.867188 -48.015625 15.734375 -50.234375 C 19.597656 -52.460938 24.144531 -53.578125 29.375 -53.578125 C 35.082031 -53.578125 40.539062 -52.335938 45.75 -49.859375 L 41.375 -38.625 C 39.425781 -39.539062 37.472656 -40.3125 35.515625 -40.9375 C 33.566406 -41.5625 31.472656 -41.875 29.234375 -41.875 Z M 29.234375 -41.875 "/></g></g></g><g fill="#ffffff" fill-opacity="1"><g transform="translate(1277.306526, 378.700196)"><g><path d="M 38.125 0 L 35.515625 -9.90625 L 18.359375 -9.90625 L 15.6875 0 L 0 0 L 17.234375 -53.046875 L 36.28125 -53.046875 L 53.734375 0 Z M 32.5625 -21.609375 L 30.28125 -30.28125 C 29.75 -32.207031 29.101562 -34.695312 28.34375 -37.75 C 27.582031 -40.8125 27.082031 -43.003906 26.84375 -44.328125 C 26.625 -43.109375 26.195312 -41.085938 25.5625 -38.265625 C 24.925781 -35.441406 23.507812 -29.890625 21.3125 -21.609375 Z M 32.5625 -21.609375 "/></g></g></g><g fill="#ffffff" fill-opacity="1"><g transform="translate(1331.030354, 378.700196)"><g><path d="M 19.984375 -19.21875 L 19.984375 0 L 5.703125 0 L 5.703125 -52.828125 L 23.015625 -52.828125 C 37.367188 -52.828125 44.546875 -47.625 44.546875 -37.21875 C 44.546875 -31.101562 41.5625 -26.367188 35.59375 -23.015625 L 50.984375 0 L 34.796875 0 L 23.59375 -19.21875 Z M 19.984375 -29.953125 L 22.65625 -29.953125 C 27.644531 -29.953125 30.140625 -32.15625 30.140625 -36.5625 C 30.140625 -40.195312 27.691406 -42.015625 22.796875 -42.015625 L 19.984375 -42.015625 Z M 19.984375 -29.953125 "/></g></g></g><g fill="#ffffff" fill-opacity="1"><g transform="translate(544.499979, 459.700192)"><g><path d="M 37.078125 0 L 5.703125 0 L 5.703125 -52.828125 L 37.078125 -52.828125 L 37.078125 -41.375 L 19.984375 -41.375 L 19.984375 -33.0625 L 35.8125 -33.0625 L 35.8125 -21.609375 L 19.984375 -21.609375 L 19.984375 -11.640625 L 37.078125 -11.640625 Z M 37.078125 0 "/></g></g></g><g fill="#ffffff" fill-opacity="1"><g transform="translate(585.108971, 459.700192)"><g><path d="M 28.71875 0 L 17.921875 -38.046875 L 17.59375 -38.046875 C 18.101562 -31.566406 18.359375 -26.53125 18.359375 -22.9375 L 18.359375 0 L 5.703125 0 L 5.703125 -52.828125 L 24.71875 -52.828125 L 35.734375 -15.328125 L 36.03125 -15.328125 L 46.828125 -52.828125 L 65.875 -52.828125 L 65.875 0 L 52.75 0 L 52.75 -23.15625 C 52.75 -24.363281 52.765625 -25.703125 52.796875 -27.171875 C 52.835938 -28.640625 53.003906 -32.238281 53.296875 -37.96875 L 52.96875 -37.96875 L 42.3125 0 Z M 28.71875 0 "/></g></g></g><g fill="#ffffff" fill-opacity="1"><g transform="translate(656.644382, 459.700192)"><g/></g></g><g fill="#ffffff" fill-opacity="1"><g transform="translate(675.865008, 459.700192)"><g><path d="M 29.234375 -41.875 C 25.835938 -41.875 23.1875 -40.484375 21.28125 -37.703125 C 19.375 -34.921875 18.421875 -31.085938 18.421875 -26.203125 C 18.421875 -16.035156 22.289062 -10.953125 30.03125 -10.953125 C 32.363281 -10.953125 34.625 -11.273438 36.8125 -11.921875 C 39.007812 -12.578125 41.21875 -13.359375 43.4375 -14.265625 L 43.4375 -2.203125 C 39.019531 -0.253906 34.03125 0.71875 28.46875 0.71875 C 20.5 0.71875 14.390625 -1.59375 10.140625 -6.21875 C 5.890625 -10.84375 3.765625 -17.523438 3.765625 -26.265625 C 3.765625 -31.734375 4.789062 -36.539062 6.84375 -40.6875 C 8.90625 -44.832031 11.867188 -48.015625 15.734375 -50.234375 C 19.597656 -52.460938 24.144531 -53.578125 29.375 -53.578125 C 35.082031 -53.578125 40.539062 -52.335938 45.75 -49.859375 L 41.375 -38.625 C 39.425781 -39.539062 37.472656 -40.3125 35.515625 -40.9375 C 33.566406 -41.5625 31.472656 -41.875 29.234375 -41.875 Z M 29.234375 -41.875 "/></g></g></g><g fill="#ffffff" fill-opacity="1"><g transform="translate(723.880444, 459.700192)"><g><path d="M 38.125 0 L 35.515625 -9.90625 L 18.359375 -9.90625 L 15.6875 0 L 0 0 L 17.234375 -53.046875 L 36.28125 -53.046875 L 53.734375 0 Z M 32.5625 -21.609375 L 30.28125 -30.28125 C 29.75 -32.207031 29.101562 -34.695312 28.34375 -37.75 C 27.582031 -40.8125 27.082031 -43.003906 26.84375 -44.328125 C 26.625 -43.109375 26.195312 -41.085938 25.5625 -38.265625 C 24.925781 -35.441406 23.507812 -29.890625 21.3125 -21.609375 Z M 32.5625 -21.609375 "/></g></g></g><g fill="#ffffff" fill-opacity="1"><g transform="translate(777.604261, 459.700192)"><g><path d="M 40.25 -16.046875 C 40.25 -12.765625 39.414062 -9.851562 37.75 -7.3125 C 36.09375 -4.769531 33.695312 -2.796875 30.5625 -1.390625 C 27.4375 0.015625 23.765625 0.71875 19.546875 0.71875 C 16.023438 0.71875 13.070312 0.472656 10.6875 -0.015625 C 8.3125 -0.515625 5.832031 -1.378906 3.25 -2.609375 L 3.25 -15.328125 C 5.96875 -13.921875 8.796875 -12.828125 11.734375 -12.046875 C 14.679688 -11.265625 17.382812 -10.875 19.84375 -10.875 C 21.957031 -10.875 23.507812 -11.238281 24.5 -11.96875 C 25.488281 -12.707031 25.984375 -13.65625 25.984375 -14.8125 C 25.984375 -15.539062 25.78125 -16.175781 25.375 -16.71875 C 24.976562 -17.257812 24.34375 -17.804688 23.46875 -18.359375 C 22.59375 -18.910156 20.25 -20.039062 16.4375 -21.75 C 13 -23.3125 10.414062 -24.828125 8.6875 -26.296875 C 6.96875 -27.773438 5.691406 -29.460938 4.859375 -31.359375 C 4.023438 -33.265625 3.609375 -35.519531 3.609375 -38.125 C 3.609375 -42.988281 5.378906 -46.78125 8.921875 -49.5 C 12.460938 -52.21875 17.328125 -53.578125 23.515625 -53.578125 C 28.984375 -53.578125 34.5625 -52.316406 40.25 -49.796875 L 35.875 -38.765625 C 30.9375 -41.035156 26.675781 -42.171875 23.09375 -42.171875 C 21.238281 -42.171875 19.890625 -41.84375 19.046875 -41.1875 C 18.203125 -40.539062 17.78125 -39.734375 17.78125 -38.765625 C 17.78125 -37.734375 18.316406 -36.804688 19.390625 -35.984375 C 20.460938 -35.171875 23.367188 -33.679688 28.109375 -31.515625 C 32.660156 -29.460938 35.820312 -27.257812 37.59375 -24.90625 C 39.363281 -22.5625 40.25 -19.609375 40.25 -16.046875 Z M 40.25 -16.046875 "/></g></g></g><g fill="#ffffff" fill-opacity="1"><g transform="translate(820.308734, 459.700192)"><g><path d="M 38.125 0 L 35.515625 -9.90625 L 18.359375 -9.90625 L 15.6875 0 L 0 0 L 17.234375 -53.046875 L 36.28125 -53.046875 L 53.734375 0 Z M 32.5625 -21.609375 L 30.28125 -30.28125 C 29.75 -32.207031 29.101562 -34.695312 28.34375 -37.75 C 27.582031 -40.8125 27.082031 -43.003906 26.84375 -44.328125 C 26.625 -43.109375 26.195312 -41.085938 25.5625 -38.265625 C 24.925781 -35.441406 23.507812 -29.890625 21.3125 -21.609375 Z M 32.5625 -21.609375 "/></g></g></g><g fill="#ffffff" fill-opacity="1"><g transform="translate(874.03254, 459.700192)"><g><path d="M 16.734375 -18.640625 L 4.8125 -18.640625 L 2.96875 -52.828125 L 18.578125 -52.828125 Z M 3.109375 -6 C 3.109375 -8.1875 3.757812 -9.890625 5.0625 -11.109375 C 6.363281 -12.328125 8.253906 -12.9375 10.734375 -12.9375 C 13.191406 -12.9375 15.050781 -12.328125 16.3125 -11.109375 C 17.582031 -9.890625 18.21875 -8.1875 18.21875 -6 C 18.21875 -3.832031 17.554688 -2.140625 16.234375 -0.921875 C 14.921875 0.296875 13.085938 0.90625 10.734375 0.90625 C 8.347656 0.90625 6.476562 0.296875 5.125 -0.921875 C 3.78125 -2.140625 3.109375 -3.832031 3.109375 -6 Z M 3.109375 -6 "/></g></g></g></svg>